<?xml version="1.0" encoding="UTF-8" standalone="no"?>
<!DOCTYPE svg PUBLIC "-//W3C//DTD SVG 1.1//EN"
 "http://www.w3.org/Graphics/SVG/1.1/DTD/svg11.dtd">
<!-- Generated by graphviz version 2.43.0 (0)
 -->
<!-- Title: divisible_by_3 Pages: 1 -->
<svg width="264pt" height="299pt"
 viewBox="0.00 0.00 264.00 299.00" xmlns="http://www.w3.org/2000/svg" xmlns:xlink="http://www.w3.org/1999/xlink">
<g id="graph0" class="graph" transform="scale(1 1) rotate(0) translate(4 295)">
<title>divisible_by_3</title>
<polygon fill="white" stroke="transparent" points="-4,4 -4,-295 260,-295 260,4 -4,4"/>
<!-- start -->
<g id="node1" class="node">
<title>start</title>
<text text-anchor="middle" x="137" y="-269.3" font-family="Times,serif" font-size="14.00">start</text>
</g>
<!-- 0 -->
<g id="node2" class="node">
<title>0</title>
<ellipse fill="none" stroke="black" cx="137" cy="-196" rx="27" ry="18"/>
<ellipse fill="none" stroke="black" cx="137" cy="-196" rx="31" ry="22"/>
<text text-anchor="middle" x="137" y="-192.3" font-family="Times,serif" font-size="14.00">0</text>
</g>
<!-- start&#45;&gt;0 -->
<g id="edge1" class="edge">
<title>start&#45;&gt;0</title>
<path fill="none" stroke="black" d="M137,-254.98C137,-247.15 137,-237.61 137,-228.54"/>
<polygon fill="black" stroke="black" points="140.5,-228.24 137,-218.24 133.5,-228.24 140.5,-228.24"/>
</g>
<!-- 0&#45;&gt;0 -->
<g id="edge2" class="edge">
<title>0&#45;&gt;0</title>
<path fill="none" stroke="black" d="M166.18,-203.48C177.05,-203.73 186,-201.23 186,-196 186,-192.56 182.15,-190.31 176.42,-189.23"/>
<polygon fill="black" stroke="black" points="176.4,-185.72 166.18,-188.52 175.91,-192.71 176.4,-185.72"/>
<text text-anchor="middle" x="218" y="-192.3" font-family="Times,serif" font-size="14.00">0, 3, 6, 9</text>
</g>
<!-- 1 -->
<g id="node3" class="node">
<title>1</title>
<ellipse fill="none" stroke="black" cx="27" cy="-105" rx="27" ry="18"/>
<text text-anchor="middle" x="27" y="-101.3" font-family="Times,serif" font-size="14.00">1</text>
</g>
<!-- 0&#45;&gt;1 -->
<g id="edge3" class="edge">
<title>0&#45;&gt;1</title>
<path fill="none" stroke="black" d="M106.59,-190.48C84.71,-185.64 56.14,-175.79 39,-156 33.49,-149.64 30.41,-141.19 28.72,-133.05"/>
<polygon fill="black" stroke="black" points="32.17,-132.46 27.24,-123.08 25.25,-133.49 32.17,-132.46"/>
<text text-anchor="middle" x="62" y="-144.8" font-family="Times,serif" font-size="14.00">1, 4, 7</text>
</g>
<!-- 2 -->
<g id="node4" class="node">
<title>2</title>
<ellipse fill="none" stroke="black" cx="137" cy="-18" rx="27" ry="18"/>
<text text-anchor="middle" x="137" y="-14.3" font-family="Times,serif" font-size="14.00">2</text>
</g>
<!-- 0&#45;&gt;2 -->
<g id="edge4" class="edge">
<title>0&#45;&gt;2</title>
<path fill="none" stroke="black" d="M145.1,-174.66C147.1,-168.74 148.96,-162.19 150,-156 157.52,-111.29 159.57,-98.52 151,-54 150.41,-50.95 149.56,-47.83 148.57,-44.76"/>
<polygon fill="black" stroke="black" points="151.82,-43.48 145.03,-35.34 145.27,-45.93 151.82,-43.48"/>
<text text-anchor="middle" x="179" y="-101.3" font-family="Times,serif" font-size="14.00">2, 5, 8</text>
</g>
<!-- 1&#45;&gt;0 -->
<g id="edge7" class="edge">
<title>1&#45;&gt;0</title>
<path fill="none" stroke="black" d="M47.72,-116.76C59.19,-123.13 73.42,-131.76 85,-141 95.49,-149.37 105.97,-159.76 114.74,-169.19"/>
<polygon fill="black" stroke="black" points="112.35,-171.76 121.67,-176.81 117.53,-167.05 112.35,-171.76"/>
<text text-anchor="middle" x="123" y="-144.8" font-family="Times,serif" font-size="14.00">2, 5, 8</text>
</g>
<!-- 1&#45;&gt;1 -->
<g id="edge5" class="edge">
<title>1&#45;&gt;1</title>
<path fill="none" stroke="black" d="M51.53,-112.75C62.51,-113.49 72,-110.91 72,-105 72,-101.03 67.72,-98.56 61.57,-97.59"/>
<polygon fill="black" stroke="black" points="61.65,-94.09 51.53,-97.25 61.41,-101.09 61.65,-94.09"/>
<text text-anchor="middle" x="104" y="-101.3" font-family="Times,serif" font-size="14.00">0, 3, 6, 9</text>
</g>
<!-- 1&#45;&gt;2 -->
<g id="edge6" class="edge">
<title>1&#45;&gt;2</title>
<path fill="none" stroke="black" d="M27.13,-86.82C28.09,-76.18 31.01,-62.9 39,-54 54.59,-36.64 79.4,-27.88 100.16,-23.47"/>
<polygon fill="black" stroke="black" points="101.07,-26.86 110.26,-21.59 99.79,-19.98 101.07,-26.86"/>
<text text-anchor="middle" x="62" y="-57.8" font-family="Times,serif" font-size="14.00">1, 4, 7</text>
</g>
<!-- 2&#45;&gt;0 -->
<g id="edge9" class="edge">
<title>2&#45;&gt;0</title>
<path fill="none" stroke="black" d="M156.05,-31.17C172.76,-43.1 195.94,-62.95 206,-87 212.18,-101.76 211.97,-108.15 206,-123 197.94,-143.06 181.32,-160.68 166.42,-173.47"/>
<polygon fill="black" stroke="black" points="163.89,-171.02 158.38,-180.06 168.33,-176.43 163.89,-171.02"/>
<text text-anchor="middle" x="233" y="-101.3" font-family="Times,serif" font-size="14.00">1, 4, 7</text>
</g>
<!-- 2&#45;&gt;1 -->
<g id="edge10" class="edge">
<title>2&#45;&gt;1</title>
<path fill="none" stroke="black" d="M123.21,-33.92C113.16,-44.37 98.91,-58.33 85,-69 76.09,-75.84 65.76,-82.44 56.3,-88.04"/>
<polygon fill="black" stroke="black" points="54.5,-85.04 47.58,-93.07 57.99,-91.1 54.5,-85.04"/>
<text text-anchor="middle" x="124" y="-57.8" font-family="Times,serif" font-size="14.00">2, 5, 8</text>
</g>
<!-- 2&#45;&gt;2 -->
<g id="edge8" class="edge">
<title>2&#45;&gt;2</title>
<path fill="none" stroke="black" d="M161.53,-25.75C172.51,-26.49 182,-23.91 182,-18 182,-14.03 177.72,-11.56 171.57,-10.59"/>
<polygon fill="black" stroke="black" points="171.65,-7.09 161.53,-10.25 171.41,-14.09 171.65,-7.09"/>
<text text-anchor="middle" x="214" y="-14.3" font-family="Times,serif" font-size="14.00">0, 3, 6, 9</text>
</g>
</g>
</svg>
