<?xml version="1.0" encoding="UTF-8" standalone="no"?>
<!DOCTYPE svg PUBLIC "-//W3C//DTD SVG 1.1//EN"
 "http://www.w3.org/Graphics/SVG/1.1/DTD/svg11.dtd">
<!-- Generated by graphviz version 2.43.0 (0)
 -->
<!-- Title: tsd_dfd Pages: 1 -->
<svg width="410pt" height="566pt"
 viewBox="0.00 0.00 409.69 565.74" xmlns="http://www.w3.org/2000/svg" xmlns:xlink="http://www.w3.org/1999/xlink">
<g id="graph0" class="graph" transform="scale(1 1) rotate(0) translate(4 561.74)">
<title>tsd_dfd</title>
<polygon fill="white" stroke="transparent" points="-4,4 -4,-561.74 405.69,-561.74 405.69,4 -4,4"/>
<!-- rnc -->
<g id="node1" class="node">
<title>rnc</title>
<polygon fill="none" stroke="black" points="177.69,-557.74 69.69,-557.74 69.69,-521.74 177.69,-521.74 177.69,-557.74"/>
<text text-anchor="middle" x="123.69" y="-536.04" font-family="Times,serif" font-size="14.00">RNC schema</text>
</g>
<!-- trang -->
<g id="node9" class="node">
<title>trang</title>
<ellipse fill="none" stroke="black" cx="123.69" cy="-466.74" rx="36.29" ry="18"/>
<text text-anchor="middle" x="123.69" y="-463.04" font-family="Times,serif" font-size="14.00">trang</text>
</g>
<!-- rnc&#45;&gt;trang -->
<g id="edge3" class="edge">
<title>rnc&#45;&gt;trang</title>
<path fill="none" stroke="black" d="M123.69,-521.55C123.69,-513.53 123.69,-503.79 123.69,-494.81"/>
<polygon fill="black" stroke="black" points="127.19,-494.77 123.69,-484.77 120.19,-494.77 127.19,-494.77"/>
</g>
<!-- rng -->
<g id="node2" class="node">
<title>rng</title>
<polygon fill="none" stroke="black" points="191.69,-411.74 55.69,-411.74 55.69,-373.74 191.69,-373.74 191.69,-411.74"/>
<text text-anchor="middle" x="123.69" y="-396.54" font-family="Times,serif" font-size="14.00">RNG</text>
<text text-anchor="middle" x="123.69" y="-381.54" font-family="Times,serif" font-size="14.00">(auto&#45;generated)</text>
</g>
<!-- tsdxrng -->
<g id="node7" class="node">
<title>tsdxrng</title>
<ellipse fill="none" stroke="black" cx="123.69" cy="-318.74" rx="98.28" ry="18"/>
<text text-anchor="middle" x="123.69" y="-315.04" font-family="Times,serif" font-size="14.00">auto&#45;generate TSD</text>
</g>
<!-- rng&#45;&gt;tsdxrng -->
<g id="edge5" class="edge">
<title>rng&#45;&gt;tsdxrng</title>
<path fill="none" stroke="black" d="M123.69,-373.57C123.69,-365.63 123.69,-356.15 123.69,-347.37"/>
<polygon fill="black" stroke="black" points="127.19,-347.16 123.69,-337.16 120.19,-347.16 127.19,-347.16"/>
</g>
<!-- auto -->
<g id="node3" class="node">
<title>auto</title>
<polygon fill="none" stroke="black" points="205.69,-263.74 41.69,-263.74 41.69,-195.74 205.69,-195.74 205.69,-263.74"/>
<text text-anchor="middle" x="123.69" y="-248.54" font-family="Times,serif" font-size="14.00">auto&#45;TSD</text>
<text text-anchor="middle" x="123.69" y="-233.54" font-family="Times,serif" font-size="14.00">(tag&#45;set description</text>
<text text-anchor="middle" x="123.69" y="-218.54" font-family="Times,serif" font-size="14.00">=Docbook refentry+</text>
<text text-anchor="middle" x="123.69" y="-203.54" font-family="Times,serif" font-size="14.00">auto&#45;generated)</text>
</g>
<!-- merge -->
<g id="node8" class="node">
<title>merge</title>
<ellipse fill="none" stroke="black" cx="128.69" cy="-131.87" rx="128.89" ry="26.74"/>
<text text-anchor="middle" x="128.69" y="-135.67" font-family="Times,serif" font-size="14.00">merge</text>
<text text-anchor="middle" x="128.69" y="-120.67" font-family="Times,serif" font-size="14.00">auto&#45; and manual parts</text>
</g>
<!-- auto&#45;&gt;merge -->
<g id="edge7" class="edge">
<title>auto&#45;&gt;merge</title>
<path fill="none" stroke="black" d="M125.43,-195.48C125.87,-186.94 126.35,-177.72 126.81,-169.05"/>
<polygon fill="black" stroke="black" points="130.31,-168.99 127.34,-158.82 123.32,-168.62 130.31,-168.99"/>
</g>
<!-- manual -->
<g id="node4" class="node">
<title>manual</title>
<polygon fill="none" stroke="black" points="387.69,-263.74 223.69,-263.74 223.69,-195.74 387.69,-195.74 387.69,-263.74"/>
<text text-anchor="middle" x="305.69" y="-248.54" font-family="Times,serif" font-size="14.00" fill="red">manual TSD</text>
<text text-anchor="middle" x="305.69" y="-233.54" font-family="Times,serif" font-size="14.00" fill="red">(tag&#45;set description</text>
<text text-anchor="middle" x="305.69" y="-218.54" font-family="Times,serif" font-size="14.00" fill="red">=Docbook refentry+</text>
<text text-anchor="middle" x="305.69" y="-203.54" font-family="Times,serif" font-size="14.00" fill="red">editable)</text>
</g>
<!-- edittsd -->
<g id="node6" class="node">
<title>edittsd</title>
<ellipse fill="none" stroke="black" cx="305.69" cy="-131.87" rx="28.7" ry="18"/>
<text text-anchor="middle" x="305.69" y="-128.17" font-family="Times,serif" font-size="14.00">edit</text>
</g>
<!-- manual&#45;&gt;edittsd -->
<g id="edge1" class="edge">
<title>manual&#45;&gt;edittsd</title>
<path fill="none" stroke="black" d="M299.23,-195.48C298.76,-183.76 298.87,-170.74 299.57,-159.63"/>
<polygon fill="black" stroke="black" points="303.05,-159.92 300.42,-149.66 296.08,-159.32 303.05,-159.92"/>
</g>
<!-- manual&#45;&gt;merge -->
<g id="edge9" class="edge">
<title>manual&#45;&gt;merge</title>
<path fill="none" stroke="black" d="M244.28,-195.48C224.2,-184.6 202.06,-172.61 182.57,-162.05"/>
<polygon fill="black" stroke="black" points="183.99,-158.84 173.53,-157.16 180.66,-165 183.99,-158.84"/>
</g>
<!-- tsd -->
<g id="node5" class="node">
<title>tsd</title>
<polygon fill="none" stroke="black" points="231.69,-68 25.69,-68 25.69,0 231.69,0 231.69,-68"/>
<text text-anchor="middle" x="128.69" y="-52.8" font-family="Times,serif" font-size="14.00">TSD</text>
<text text-anchor="middle" x="128.69" y="-37.8" font-family="Times,serif" font-size="14.00">(tag&#45;set description:</text>
<text text-anchor="middle" x="128.69" y="-22.8" font-family="Times,serif" font-size="14.00">Docbook refentry+</text>
<text text-anchor="middle" x="128.69" y="-7.8" font-family="Times,serif" font-size="14.00">prose and auto&#45;generated)</text>
</g>
<!-- tsd&#45;&gt;manual -->
<g id="edge10" class="edge">
<title>tsd&#45;&gt;manual</title>
<path fill="none" stroke="black" stroke-dasharray="1,5" d="M231.72,-42.76C273.48,-51.58 317.86,-69.42 343.69,-105 361.17,-129.08 350.41,-161.34 335.94,-186.89"/>
<polygon fill="black" stroke="black" points="332.85,-185.25 330.71,-195.62 338.85,-188.84 332.85,-185.25"/>
<text text-anchor="middle" x="377.19" y="-128.17" font-family="Times,serif" font-size="14.00">Re&#45;use</text>
</g>
<!-- edittsd&#45;&gt;manual -->
<g id="edge2" class="edge">
<title>edittsd&#45;&gt;manual</title>
<path fill="none" stroke="black" d="M310.97,-149.66C312.09,-159.62 312.57,-172.76 312.42,-185.46"/>
<polygon fill="black" stroke="black" points="308.92,-185.39 312.15,-195.48 315.91,-185.57 308.92,-185.39"/>
</g>
<!-- tsdxrng&#45;&gt;auto -->
<g id="edge6" class="edge">
<title>tsdxrng&#45;&gt;auto</title>
<path fill="none" stroke="black" d="M123.69,-300.55C123.69,-292.84 123.69,-283.37 123.69,-273.91"/>
<polygon fill="black" stroke="black" points="127.19,-273.74 123.69,-263.74 120.19,-273.74 127.19,-273.74"/>
</g>
<!-- merge&#45;&gt;tsd -->
<g id="edge8" class="edge">
<title>merge&#45;&gt;tsd</title>
<path fill="none" stroke="black" d="M128.69,-104.93C128.69,-96.71 128.69,-87.39 128.69,-78.29"/>
<polygon fill="black" stroke="black" points="132.19,-78.19 128.69,-68.19 125.19,-78.19 132.19,-78.19"/>
</g>
<!-- trang&#45;&gt;rng -->
<g id="edge4" class="edge">
<title>trang&#45;&gt;rng</title>
<path fill="none" stroke="black" d="M123.69,-448.68C123.69,-440.73 123.69,-431.05 123.69,-422.05"/>
<polygon fill="black" stroke="black" points="127.19,-421.94 123.69,-411.94 120.19,-421.94 127.19,-421.94"/>
</g>
</g>
</svg>
